<?xml version="1.0" standalone="no"?>
<!DOCTYPE svg PUBLIC "-//W3C//DTD SVG 20010904//EN"
 "http://www.w3.org/TR/2001/REC-SVG-20010904/DTD/svg10.dtd">
<svg version="1.0" xmlns="http://www.w3.org/2000/svg"
 width="400.000000pt" height="400.000000pt" viewBox="0 0 400.000000 400.000000"
 preserveAspectRatio="xMidYMid meet">
<metadata>
Created by potrace 1.14, written by Peter Selinger 2001-2017
</metadata>
<g transform="translate(0.000000,400.000000) scale(0.100000,-0.100000)"
fill="#000000" stroke="none">
<path d="M975 3295 c-145 -22 -233 -52 -350 -119 -169 -96 -311 -294 -341
-477 -11 -68 -13 -218 -3 -280 36 -226 161 -375 424 -507 78 -39 312 -124 545
-197 180 -57 325 -131 399 -206 34 -34 73 -82 86 -108 l24 -46 1 243 c0 133 3
242 8 242 16 0 110 -70 160 -119 50 -49 142 -178 142 -200 0 -5 4 -12 9 -16 6
-3 10 194 10 507 0 575 0 599 8 578 4 -8 51 -107 106 -220 54 -113 121 -250
147 -305 26 -55 87 -181 135 -280 48 -99 100 -208 117 -243 l30 -62 128 0 128
0 17 37 c10 20 60 125 113 232 52 108 116 241 142 296 69 146 140 293 209 435
l60 125 1 -50 c1 -27 1 -510 1 -1072 l0 -1023 165 0 164 0 0 1400 0 1400 -181
0 -180 0 -63 -132 c-35 -73 -98 -205 -141 -293 -42 -88 -97 -203 -122 -255
-25 -52 -86 -178 -134 -279 -49 -101 -108 -223 -131 -272 -23 -49 -44 -89 -48
-89 -3 0 -29 48 -57 108 -28 59 -88 184 -133 277 -45 94 -108 224 -140 290
-32 66 -84 176 -118 245 -33 69 -89 187 -125 263 l-66 137 -181 0 -180 0 0
-71 0 -71 -42 31 c-23 17 -46 31 -51 31 -5 0 -21 8 -35 18 -50 34 -189 81
-292 97 -79 13 -282 13 -365 0z m863 -253 c35 -38 69 -79 77 -93 47 -85 74
-139 68 -139 -3 0 -1 -6 5 -12 17 -22 37 -107 48 -210 l6 -57 -138 2 -139 2
-3 288 c-1 158 1 287 6 287 4 0 36 -31 70 -68z m-553 -37 c231 -48 385 -225
404 -462 1 -8 15 -13 36 -13 l35 0 0 -341 c0 -187 -3 -339 -7 -337 -163 82
-283 131 -525 212 -159 52 -312 108 -340 122 -192 97 -259 188 -264 359 -2 50
1 110 7 135 24 110 97 209 198 268 111 65 301 89 456 57z"/>
<path d="M2090 1415 c-3 -90 1 -449 4 -453 3 -2 11 25 19 60 23 97 15 352 -13
422 -7 16 -9 10 -10 -29z"/>
<path d="M1762 1185 c0 -110 2 -142 9 -120 13 38 13 189 0 235 -7 26 -9 -4 -9
-115z"/>
<path d="M175 1278 c2 -13 6 -54 9 -93 25 -275 182 -507 437 -644 81 -44 229
-96 299 -105 25 -3 70 -10 100 -15 57 -9 350 -8 366 1 5 3 32 9 59 12 64 9
209 57 266 89 l44 25 2 234 3 233 -32 -57 c-34 -63 -126 -155 -187 -188 -93
-49 -231 -75 -386 -72 -99 2 -194 20 -268 50 -16 7 -30 12 -33 12 -10 0 -110
69 -140 97 -100 92 -169 236 -181 376 l-6 67 -178 0 -178 0 4 -22z"/>
<path d="M2061 874 c-45 -102 -148 -220 -253 -292 -45 -31 -48 -36 -48 -77 l0
-45 165 0 165 0 -2 230 c0 127 -2 230 -4 230 -2 0 -12 -21 -23 -46z"/>
</g>
</svg>
