<?xml version="1.0" standalone="no"?>
<!DOCTYPE svg PUBLIC "-//W3C//DTD SVG 20010904//EN"
 "http://www.w3.org/TR/2001/REC-SVG-20010904/DTD/svg10.dtd">
<svg version="1.0" xmlns="http://www.w3.org/2000/svg"
 width="498.000000pt" height="498.000000pt" viewBox="0 0 498.000000 498.000000"
 preserveAspectRatio="xMidYMid meet">
<metadata>
Created by potrace 1.14, written by Peter Selinger 2001-2017
</metadata>
<g transform="translate(0.000000,498.000000) scale(0.100000,-0.100000)"
fill="#000000" stroke="none">
<path d="M1225 3666 c-205 -47 -342 -160 -392 -320 -26 -86 -23 -231 5 -309
40 -112 139 -210 282 -282 36 -18 130 -56 210 -85 340 -123 433 -205 417 -366
-17 -169 -160 -254 -427 -254 -155 0 -227 11 -355 55 -55 19 -104 36 -109 37
-9 3 -86 -185 -86 -209 0 -15 126 -55 246 -80 128 -26 471 -26 564 0 117 33
209 84 282 157 107 107 144 208 136 374 -5 107 -31 174 -98 249 -84 94 -199
162 -410 242 -234 88 -360 166 -400 246 -27 51 -27 137 0 188 28 57 100 115
167 137 116 37 395 16 566 -42 49 -17 69 -20 72 -11 2 7 20 54 39 105 l34 94
-41 18 c-23 10 -87 28 -142 40 -129 28 -465 38 -560 16z"/>
</g>
</svg>
